<svg width="500" height="66" xmlns="http://www.w3.org/2000/svg">
 <g>
  <title>Layer 1</title>
  <path id="svg_1" d="m0,0l293.720001,0c-4.480011,0.01 -8.910004,0.72 -13.329987,1.38c0,1.83 0.009979,3.65 0.019989,5.48c2.100006,0.02 4.190002,0.03 6.290009,0.05c-0.240021,13.870001 0.569977,27.779999 -0.590027,41.619999c-1.959991,0.620003 -3.909973,1.240002 -5.859985,1.870003c0.170013,1.399998 0.320007,2.809998 0.429993,4.219997c6.649994,-0.009998 13.300018,0.040001 19.950012,-0.039997c0.100006,-1.380001 0.220001,-2.77 0.380005,-4.140003c-1.040009,-0.91 -2.089996,-1.799999 -3.130005,-2.699997c-0.350006,-3.710003 -0.279999,-7.440002 -0.25,-11.170002c3.76001,4.84 6.579987,10.510002 11.290009,14.529999c4.009979,3.450001 9.369995,4.490002 14.48999,4.91c0.429993,-1.799999 0.889984,-3.59 1.339996,-5.379997c-7.730011,-4.400002 -12.119995,-12.440002 -17.700012,-19.040001c4.580017,-3.66 9.080017,-7.43 13.51001,-11.25c1.470001,-1.049999 0.899994,-3.059999 1.200012,-4.6c-5.589996,-0.049999 -11.180023,-0.099999 -16.77002,0.05c-0.789978,3.28 2.180023,4.47 4.26001,6.14c-3.380005,4.07 -7.75,7.119999 -11.600006,10.689999c-0.059998,-9.23 -0.009979,-18.459999 -0.009979,-27.689999c0.119995,-1.76 -0.570007,-3.4 -1.360016,-4.93l113.48999,0c-4.25,0.05 -8.449982,0.75 -12.649994,1.33c0,1.84 0,3.68 0.02002,5.52c2.069977,0.03 4.149994,0.04 6.23999,0.06c0,2.82 -0.01001,5.64 -0.01001,8.46c-6.649994,-0.34 -14.079987,-0.03 -19.220001,4.8c-6.329987,5.190001 -7.75,14.120001 -6.449982,21.809999c0.529999,4.040001 2.449982,8.080002 5.949982,10.360001c6.070007,3.740002 14.880005,3.200001 19.450012,-2.700001c0.48999,2.110001 1.570007,3.950001 3.22998,5.34c5.080017,0.25 10.130005,-0.93 14.480011,-3.599998c-0.329987,-1.43 -0.649994,-2.870003 -0.970001,-4.299999c-1.73999,0.009998 -3.480011,0.019997 -5.209991,0.039997c-0.339996,-14.629997 -0.350006,-29.259998 -0.369995,-43.889999c0.449982,-2.36 -1.76001,-3.36 -3.730011,-3.23l89.470001,0l0,66l-500,0l0,-66z" fill="#ffffff"/>
  <path id="svg_2" d="m293.720001,0l2.559998,0c0.790009,1.53 1.480011,3.17 1.360016,4.93c0,9.23 -0.050018,18.459999 0.009979,27.689999c3.850006,-3.57 8.220001,-6.619999 11.600006,-10.689999c-2.079987,-1.67 -5.049988,-2.860001 -4.26001,-6.14c5.589996,-0.15 11.180023,-0.099999 16.77002,-0.05c-0.300018,1.540001 0.269989,3.550001 -1.200012,4.6c-4.429993,3.82 -8.929993,7.59 -13.51001,11.25c5.580017,6.599998 9.970001,14.639999 17.700012,19.040001c-0.450012,1.789997 -0.910004,3.579998 -1.339996,5.379997c-5.119995,-0.419998 -10.480011,-1.459999 -14.48999,-4.91c-4.710022,-4.019997 -7.529999,-9.689999 -11.290009,-14.529999c-0.029999,3.73 -0.100006,7.459999 0.25,11.170002c1.040009,0.899998 2.089996,1.789997 3.130005,2.699997c-0.160004,1.370003 -0.279999,2.760002 -0.380005,4.140003c-6.649994,0.079998 -13.300018,0.029999 -19.950012,0.039997c-0.109985,-1.41 -0.259979,-2.82 -0.429993,-4.219997c1.950012,-0.630001 3.899994,-1.25 5.859985,-1.870003c1.160004,-13.84 0.350006,-27.749998 0.590027,-41.619999c-2.100006,-0.02 -4.190002,-0.03 -6.290009,-0.05c-0.01001,-1.83 -0.019989,-3.65 -0.019989,-5.48c4.419983,-0.66 8.849976,-1.37 13.329987,-1.38z" fill="#000000"/>
  <path id="svg_3" d="m409.769989,0l0.76001,0c1.970001,-0.13 4.179993,0.87 3.730011,3.23c0.019989,14.630001 0.029999,29.260002 0.369995,43.889999c1.72998,-0.02 3.470001,-0.029999 5.209991,-0.039997c0.320007,1.429996 0.640015,2.869999 0.970001,4.299999c-4.350006,2.669998 -9.399994,3.849998 -14.480011,3.599998c-1.659973,-1.389999 -2.73999,-3.23 -3.22998,-5.34c-4.570007,5.900002 -13.380005,6.440002 -19.450012,2.700001c-3.5,-2.279999 -5.419983,-6.32 -5.949982,-10.360001c-1.300018,-7.689999 0.119995,-16.619999 6.449982,-21.809999c5.140015,-4.83 12.570007,-5.14 19.220001,-4.8c0,-2.82 0.01001,-5.64 0.01001,-8.46c-2.089996,-0.02 -4.170013,-0.03 -6.23999,-0.06c-0.02002,-1.84 -0.02002,-3.68 -0.02002,-5.52c4.200012,-0.58 8.399994,-1.28 12.649994,-1.33z" fill="#000000"/>
  <path id="svg_4" d="m32.490002,3.26c11.599998,-3.89 25.259998,-0.17 33.219997,9.14c3.360001,3.9 5.709999,8.6 6.93,13.59c-20.309998,0 -40.619999,0.040001 -60.929999,-0.01c2.33,-10.52 10.52,-19.469999 20.780002,-22.72z" fill="#e90000"/>
  <path id="svg_5" d="m141.300003,8.19c1.009995,-0.909999 2.410004,-0.78 3.660004,-0.96c0.049988,2.82 0.039993,5.65 0.039993,8.48c4.300003,-0.01 8.589996,-0.03 12.889999,0.03c0.009995,2.280001 -0.009995,4.550001 -0.029999,6.83c-4.279999,0.09 -8.570007,0.050001 -12.860001,0.050001c0.009995,6.179998 -0.020004,12.359999 0,18.539999c0.100006,1.630001 -0.050003,3.490002 1.130005,4.790001c4.029999,0.959999 8.220001,0.219997 12.299988,0.09c0.280014,2.07 0.670013,4.119999 0.960007,6.18c-6.429993,2.739998 -13.830002,3.879997 -20.619995,1.939999c-4.940002,-1.650002 -5.340012,-7.669998 -5.419998,-12.07c0.329987,-6.470001 0.439987,-12.950001 0.349991,-19.43c-1.849991,-0.030001 -3.699997,-0.049999 -5.539993,-0.1c-0.029999,-1.43 -0.080002,-2.869999 -0.12001,-4.309999c4.410004,-3.36 8.770004,-6.79 13.26001,-10.06z" fill="#000000"/>
  <path id="svg_6" d="m259.48999,8.32c1,-1.01 2.470001,-0.9 3.77002,-1.07c0.029999,2.81 0.049988,5.62 0.049988,8.440001c4.330017,0.02 8.660004,0 12.98999,0.02c0,2.3 -0.009979,4.599999 -0.029999,6.900001c-4.319977,0.019999 -8.639984,0 -12.959991,0.029999c-0.029999,7.76 -0.040009,15.560001 0.76001,23.27c4.179993,0.860001 8.470001,0.400002 12.679993,0.099998c0.369995,2.060001 0.790009,4.110001 1.220001,6.16c-6.059998,2.700001 -12.860016,3.550003 -19.390015,2.480003c-4.029984,-0.75 -6.449982,-4.670002 -6.519989,-8.560001c-0.23999,-7.810001 0.150009,-15.630001 0.040009,-23.450001c-1.889999,-0.019999 -3.790009,-0.019999 -5.680008,-0.059999c-0.020004,-1.43 -0.039993,-2.85 -0.059998,-4.27c4.350006,-3.369999 8.809998,-6.58 13.12999,-9.99z" fill="#000000"/>
  <path id="svg_7" d="m94.269997,23.709999c1.210007,-4.429998 5.25,-7.58 9.630005,-8.539999c6.449997,-1.29 13.169998,-0.21 19.189995,2.33c-0.189995,3.51 -0.82,6.969999 -1.379997,10.440001c-1.25,-0.1 -2.479996,-0.290001 -3.729996,-0.390001c-1.010002,-5.609999 -7.540001,-7.9 -12.450005,-6.119999c-2.07,0.82 -2.369995,4.289999 -0.220001,5.190001c5.610001,3.449999 13.080002,4.379999 16.990005,10.210001c3.959999,5.879997 0.229996,14.369999 -6.200005,16.629997c-7.739998,2.870003 -16.709999,1.920002 -24.089996,-1.649998c0.329994,-3.470001 0.57,-6.950001 0.799995,-10.43c1.420006,0 2.850006,0 4.279999,0c1.050003,6.48 9.150002,9.25 14.590004,6.48c1.989998,-1.310001 1.620003,-4.119999 -0.43,-5.16c-4.760002,-2.869999 -10.779999,-3.799999 -14.599998,-8.139999c-2.660004,-2.900002 -3.169998,-7.120001 -2.380005,-10.850002z" fill="#000000"/>
  <path id="svg_8" d="m164.399994,16.879999c7.110001,-2.349999 14.820007,-3.079999 22.190002,-1.619999c4.480011,0.85 8.589996,4.76 8.389999,9.539999c0.020004,7.530003 -0.059998,15.09 0.710007,22.59c1.729996,-0.009998 3.449997,-0.029999 5.179993,-0.059998c0.169998,1.279999 0.360001,2.549999 0.559998,3.82c-4.109985,2.889999 -9.589996,5.139999 -14.509995,2.959999c-1.830002,-0.740002 -2.020004,-2.940002 -2.630005,-4.549999c-4.48999,4.59 -11.679993,7.039997 -17.769989,4.23c-6.139999,-2.850002 -5.570007,-12.16 -0.889999,-16.120003c5.059998,-4.459999 12.209991,-4.329998 18.48999,-5.369999c-0.029999,-2.25 0.12001,-4.519999 -0.179993,-6.759998c-1.199997,-2.030001 -3.76001,-1.890001 -5.790009,-2.160002c-3.959991,-0.07 -7.87999,0.720001 -11.75,1.52c-0.669998,-2.67 -1.349991,-5.34 -2,-8.02z" fill="#000000"/>
  <path id="svg_9" d="m206.809998,16.950001c7.199997,-2.590001 15.160004,-3.14 22.650009,-1.56c4.369995,0.95 7.969986,4.819999 7.809998,9.429999c-0.080002,7.52 0.289993,15.040001 0.679993,22.549999c1.729996,0.010002 3.460007,0.010002 5.199997,0.010002c0.25,1.200001 0.51001,2.399998 0.779999,3.599998c-3.98999,2.920002 -9.37999,5.240002 -14.259995,3.279999c-2.080002,-0.669998 -2.539993,-2.91 -2.990005,-4.759998c-4.919998,5.029999 -13.319992,7.59 -19.5,3.290001c-4.759995,-4.360001 -3.179993,-13.170002 2.280014,-16.299999c5.039993,-3.230003 11.199997,-3.27 16.919998,-4.220001c-0.360001,-2.66 1.12999,-6.48 -1.700012,-8.140001c-5.279999,-1.67 -10.759995,-0.109999 -16.039993,0.690001c-0.600006,-2.629999 -1.300003,-5.23 -1.830002,-7.869999z" fill="#000000"/>
  <path id="svg_10" d="m326,16.24c4.329987,-0.75 8.690002,-1.86 13.130005,-1.49c2.209991,-0.12 3.73999,2.139999 3.690002,4.18c0.22998,8 -0.089996,16.02 0.130005,24.02c-0.070007,2.07 1.829987,4.360001 4.009979,4.07c3.230011,-0.209999 6.26001,-1.43 9.320007,-2.380001c0.23999,-7.77 0.589996,-15.529999 0.410004,-23.309999c-1.869995,-0.030001 -3.730011,-0.039999 -5.589996,-0.08c0.009979,-1.629999 0.019989,-3.26 0.040009,-4.879999c4.709991,-0.960001 9.609985,-2.440001 14.409973,-1.250001c2.040009,1.179999 1.990021,3.759999 2.090027,5.830001c-0.060028,8.809999 -0.060028,17.619999 0.279999,26.43c1.75,0 3.519989,-0.010002 5.279999,-0.010002c0.289978,1.52 0.609985,3.040001 0.73999,4.59c-3.779999,2.350002 -8.450012,3.34 -12.860016,2.850002c-2.48999,-0.48 -4.069977,-2.700001 -4.319977,-5.130001c-3.869995,3.220001 -8.580017,6.060001 -13.830017,5.349998c-4.649994,0.32 -10.089996,-2.16 -10.769989,-7.239998c-0.390015,-8.82 -0.040009,-17.660002 -0.160004,-26.490002c-2.01001,-0.009998 -4,0 -6,0c-0.01001,-1.689999 0,-3.379999 0,-5.059999z" fill="#000000"/>
  <path id="svg_11" d="m439.339996,15.12c7.119995,-1.44 15.970001,-0.37 20.630005,5.830001c5.790009,8.719999 4.839996,21.829998 -3.26001,28.849998c-6.399994,6 -16.47998,6.540001 -24.190002,2.91c-5.829987,-2.779999 -8.449982,-9.48 -8.529999,-15.610001c-0.73999,-9.679998 5.900024,-19.469999 15.350006,-21.979999z" fill="#000000"/>
  <path id="svg_12" d="m470.290009,23.58c1.179993,-4.41 5.279999,-7.43 9.589996,-8.4c6.459991,-1.31 13.179993,-0.21 19.209991,2.32c-0.25,3.5 -0.850006,6.969999 -1.369995,10.440001c-1.279999,-0.110001 -2.540009,-0.290001 -3.799988,-0.390001c-0.940002,-5.639999 -7.590027,-7.929998 -12.460022,-6.08c-2.069977,0.870001 -2.25,4.280001 -0.119995,5.190001c6.019989,3.6 14.230011,4.700001 17.790009,11.5c0.609985,3.73 1.029999,8.220001 -1.649994,11.290001c-2.320007,2.939999 -5.900024,4.529999 -9.480011,5.27c-6.769989,0.91 -13.820007,0.209999 -19.980011,-2.870003c0.27002,-3.489998 0.490021,-6.98 0.790009,-10.469997c1.399994,0 2.799988,0 4.209991,0c1.110016,6.52 9.170013,9.25 14.660004,6.48c1.980011,-1.299999 1.630005,-4.110001 -0.429993,-5.139999c-4.929993,-3 -11.329987,-3.91 -15.059998,-8.720001c-2.459991,-2.85 -2.589996,-6.9 -1.899994,-10.42z" fill="#000000"/>
  <path id="svg_13" d="m393.459991,22.25c3.070007,-1.74 6.640015,-1.01 9.920013,-0.41c-0.089996,7.719999 0.22998,15.439999 -0.320007,23.139999c-3.419983,0.93 -7.540009,2.010002 -10.579987,-0.470001c-3.529999,-2.719997 -3.910004,-7.559998 -3.52002,-11.66c0.330017,-3.809998 1.070007,-8.309998 4.5,-10.599998z" fill="#ffffff"/>
  <path id="svg_14" d="m440.290009,22.09c2.72998,-1.35 6.149994,-0.639999 8.410004,1.289999c3.159973,3.76 3.440002,9.020002 3.299988,13.710001c-0.320007,3.169998 -0.679993,6.669998 -2.910004,9.16c-3.230011,3.16 -9.290009,2.029999 -11.410004,-1.889999c-2.609985,-4.560001 -2.22998,-10.130001 -1.720001,-15.17c0.529999,-2.710001 1.480011,-6.01 4.330017,-7.1z" fill="#ffffff"/>
  <path id="svg_15" d="m175.710007,39.66c2.610001,-1.23 5.559998,-1.490002 8.389999,-1.790001c0.009995,2.400002 0,4.799999 0.019989,7.200001c-3.149994,0.82 -6.929993,2.82 -9.979996,0.75c-2.190002,-1.869999 -0.699997,-5.16 1.570007,-6.16z" fill="#ffffff"/>
  <path id="svg_16" d="m217.160004,40.189999c2.720001,-1.77 6.089996,-1.899998 9.209991,-2.34c0.01001,2.390003 0,4.790001 0.029999,7.18c-3.23999,0.93 -7.069992,2.91 -10.189987,0.639999c-1.070007,-1.689999 -0.900009,-4.379997 0.949997,-5.48z" fill="#ffffff"/>
  <path id="svg_17" d="m11.73,40.02c8.09,-0.049999 16.18,-0.010002 24.27,-0.02c0,7.860001 0.009998,15.73 -0.009998,23.59c-11.750002,-2.32 -21.630002,-11.880001 -24.260002,-23.57z" fill="#e90000"/>
  <path id="svg_18" d="m49,40c7.869999,0.009998 15.739998,-0.009998 23.610001,0.009998c-2.610001,11.460003 -12.080002,20.940002 -23.59,23.41c-0.040001,-7.799999 -0.010002,-15.609997 -0.02,-23.419998z" fill="#e90000"/>
 </g>
</svg>